# xmcd
#
# Track frame offsets: 
#        150
#        13897
#        26992
#        37732
#        48480
#        66720
#        77180
#        91167
#        103275
#        114792
#
# Disc length: 1754 seconds
#
# Revision: 3
# Processed by: cddbd v1.5.1PL2 Copyright (c) Steve Scherf et al.
# Submitted via: ExactAudioCopy v0.95b3
#
DISCID=8206d80a
DTITLE=Various Artist - Chicago Blues Giants
DYEAR=1996
DGENRE=Blues
TTITLE0=Little Walter - You Better Watch Yourself
TTITLE1=Muddy Waters - Forty Days And Forty Nights
TTITLE2=Bo Diddley - Mona
TTITLE3=Sonny Boy Williamson - Fattening Frogs For Snakes
TTITLE4=Howlin' Wolf - Goin' Down Slow
TTITLE5=Little Milton - Satisfied
TTITLE6=Koko Taylor - What Kind Of Man Is That?
TTITLE7=Otis Rush - You Know My Love
TTITLE8=Buddy Guy - Keep It To Myself
TTITLE9=Hound Dog Taylor - Sitting Here Alone
EXTD=
EXTT0=
EXTT1=
EXTT2=
EXTT3=
EXTT4=
EXTT5=
EXTT6=
EXTT7=
EXTT8=
EXTT9=
PLAYORDER=
